<svg version="1.1" viewBox="0.0 0.0 889.8950131233596 671.8267716535433" fill="none" stroke="none" stroke-linecap="square" stroke-miterlimit="10" xmlns:xlink="http://www.w3.org/1999/xlink" xmlns="http://www.w3.org/2000/svg"><clipPath id="p.0"><path d="m0 0l889.895 0l0 671.8268l-889.895 0l0 -671.8268z" clip-rule="nonzero"/></clipPath><g clip-path="url(#p.0)"><path fill="#000000" fill-opacity="0.0" d="m0 0l889.895 0l0 671.8268l-889.895 0z" fill-rule="evenodd"/><path fill="#ffff00" d="m256.4006 204.61932l68.91269 0l0 0c4.569336 0 8.951538 1.815155 12.182526 5.046158c3.231018 3.2310028 5.046173 7.6131897 5.046173 12.182526l0 422.51935c0 4.272461E-4 -3.9672852E-4 8.544922E-4 -8.544922E-4 8.544922E-4l-103.36922 -8.544922E-4l0 0c-4.7302246E-4 0 -8.69751E-4 -4.272461E-4 -8.69751E-4 -8.544922E-4l8.69751E-4 -422.5185l0 0c0 -9.515137 7.7135468 -17.228683 17.228683 -17.228683z" fill-rule="evenodd"/><path stroke="#000000" stroke-width="24.0" stroke-linejoin="round" stroke-linecap="butt" d="m256.4006 204.61932l68.91269 0l0 0c4.569336 0 8.951538 1.815155 12.182526 5.046158c3.231018 3.2310028 5.046173 7.6131897 5.046173 12.182526l0 422.51935c0 4.272461E-4 -3.9672852E-4 8.544922E-4 -8.544922E-4 8.544922E-4l-103.36922 -8.544922E-4l0 0c-4.7302246E-4 0 -8.69751E-4 -4.272461E-4 -8.69751E-4 -8.544922E-4l8.69751E-4 -422.5185l0 0c0 -9.515137 7.7135468 -17.228683 17.228683 -17.228683z" fill-rule="evenodd"/><path fill="#9900ff" d="m359.7707 27.442257l68.91269 0l0 0c4.569336 0 8.951508 1.8151608 12.182526 5.0461655c3.231018 3.2310066 5.046173 7.6131935 5.046173 12.182526l0 599.6847c0 4.8828125E-4 -3.9672852E-4 8.544922E-4 -8.544922E-4 8.544922E-4l-103.36923 -8.544922E-4l0 0c-4.8828125E-4 0 -8.544922E-4 -3.6621094E-4 -8.544922E-4 -8.544922E-4l8.544922E-4 -599.68384l0 0c0 -9.515144 7.713562 -17.228691 17.228699 -17.228691z" fill-rule="evenodd"/><path stroke="#000000" stroke-width="24.0" stroke-linejoin="round" stroke-linecap="butt" d="m359.7707 27.442257l68.91269 0l0 0c4.569336 0 8.951508 1.8151608 12.182526 5.0461655c3.231018 3.2310066 5.046173 7.6131935 5.046173 12.182526l0 599.6847c0 4.8828125E-4 -3.9672852E-4 8.544922E-4 -8.544922E-4 8.544922E-4l-103.36923 -8.544922E-4l0 0c-4.8828125E-4 0 -8.544922E-4 -3.6621094E-4 -8.544922E-4 -8.544922E-4l8.544922E-4 -599.68384l0 0c0 -9.515144 7.713562 -17.228691 17.228699 -17.228691z" fill-rule="evenodd"/><path fill="#ff0000" d="m463.14078 106.47058l68.91269 0l0 0c4.569336 0 8.951538 1.8151627 12.182495 5.046173c3.231018 3.2310028 5.0462036 7.6131897 5.0462036 12.182518l0 520.6611c0 4.8828125E-4 -4.272461E-4 8.544922E-4 -8.544922E-4 8.544922E-4l-103.36923 -8.544922E-4l0 0c-4.8828125E-4 0 -8.544922E-4 -3.6621094E-4 -8.544922E-4 -8.544922E-4l8.544922E-4 -520.6602l0 0c0 -9.515144 7.7135315 -17.228691 17.228699 -17.228691z" fill-rule="evenodd"/><path stroke="#000000" stroke-width="24.0" stroke-linejoin="round" stroke-linecap="butt" d="m463.14078 106.47058l68.91269 0l0 0c4.569336 0 8.951538 1.8151627 12.182495 5.046173c3.231018 3.2310028 5.0462036 7.6131897 5.0462036 12.182518l0 520.6611c0 4.8828125E-4 -4.272461E-4 8.544922E-4 -8.544922E-4 8.544922E-4l-103.36923 -8.544922E-4l0 0c-4.8828125E-4 0 -8.544922E-4 -3.6621094E-4 -8.544922E-4 -8.544922E-4l8.544922E-4 -520.6602l0 0c0 -9.515144 7.7135315 -17.228691 17.228699 -17.228691z" fill-rule="evenodd"/><path fill="#4a86e8" d="m566.51086 309.14056l68.91266 0l0 0c4.569336 0 8.951538 1.815155 12.182556 5.046173c3.231018 3.2309875 5.0461426 7.6131897 5.0461426 12.182526l0 318.01538c0 4.8828125E-4 -3.6621094E-4 8.544922E-4 -8.544922E-4 8.544922E-4l-103.3692 -8.544922E-4l0 0c-4.8828125E-4 0 -8.544922E-4 -3.6621094E-4 -8.544922E-4 -8.544922E-4l8.544922E-4 -318.01453l0 0c0 -9.515167 7.713562 -17.228699 17.228699 -17.228699z" fill-rule="evenodd"/><path stroke="#000000" stroke-width="24.0" stroke-linejoin="round" stroke-linecap="butt" d="m566.51086 309.14056l68.91266 0l0 0c4.569336 0 8.951538 1.815155 12.182556 5.046173c3.231018 3.2309875 5.0461426 7.6131897 5.0461426 12.182526l0 318.01538c0 4.8828125E-4 -3.6621094E-4 8.544922E-4 -8.544922E-4 8.544922E-4l-103.3692 -8.544922E-4l0 0c-4.8828125E-4 0 -8.544922E-4 -3.6621094E-4 -8.544922E-4 -8.544922E-4l8.544922E-4 -318.01453l0 0c0 -9.515167 7.713562 -17.228699 17.228699 -17.228699z" fill-rule="evenodd"/><path fill="#1ba500" d="m867.07745 392.90082l-173.2284 -164.56694l-0.09588623 77.159775l91.217896 86.65701l-91.43347 86.85602l-0.097961426 78.83902z" fill-rule="evenodd"/><path stroke="#000000" stroke-width="24.0" stroke-linejoin="round" stroke-linecap="butt" d="m867.07745 392.90082l-173.2284 -164.56694l-0.09588623 77.159775l91.217896 86.65701l-91.43347 86.85602l-0.097961426 78.83902z" fill-rule="evenodd"/><path fill="#1ba500" d="m22.81496 392.90082l173.22835 -164.56694l0.09588623 77.159775l-91.2179 86.65701l91.43351 86.85602l0.097961426 78.83902z" fill-rule="evenodd"/><path stroke="#000000" stroke-width="24.0" stroke-linejoin="round" stroke-linecap="butt" d="m22.81496 392.90082l173.22835 -164.56694l0.09588623 77.159775l-91.2179 86.65701l91.43351 86.85602l0.097961426 78.83902z" fill-rule="evenodd"/></g></svg>